
<svg width="40px" height="43px" viewBox="0 0 40 43" version="1.1" xmlns="http://www.w3.org/2000/svg" xmlns:xlink="http://www.w3.org/1999/xlink">
    <!-- Generator: Sketch 47.1 (45422) - http://www.bohemiancoding.com/sketch -->
    <desc>Created with Sketch.</desc>
    <defs>
        <polygon id="path-1" points="56 52 56 0 28 0 0 0 0 52"></polygon>
    </defs>
    <g id="Symbols" stroke="none" stroke-width="1" fill="none" fill-rule="evenodd">
        <g id="Group" transform="translate(-337.000000, -644.000000)">
            <g id="Page-1">
                <g transform="translate(363.000000, 672.000000) scale(-1, 1) rotate(-90.000000) translate(-363.000000, -672.000000) translate(335.000000, 646.000000)">
                    <mask id="mask-2" fill="white">
                        <use xlink:href="#path-1"></use>
                    </mask>
                    <g id="Clip-2"></g>
                    <path d="M51.0846268,16.9331456 C54.1964689,20.7294067 55.9588517,25.529974 55.9588517,30.5402 C55.9588517,42.3729664 46.3227368,52 34.4790144,52 C22.6352919,52 13,42.3729664 13,30.5402 C13,24.7262824 15.2896986,19.2825562 19.4471196,15.2125055 C20.4208947,14.2585585 21.9843254,14.2745912 22.9383493,15.2478597 C23.8927847,16.2209227 23.8769426,17.7826744 22.902756,18.7357992 C19.700799,21.8704022 17.937799,26.0623426 17.937799,30.5402 C17.937799,39.6525421 25.3580766,47.0668544 34.4790144,47.0668544 C43.6007751,47.0668544 50.9938947,39.6525421 50.9938947,30.5402 C50.9938947,26.961614 49.8549091,23.5228004 47.7156077,20.7100852 L47.7156077,22.6884821 C47.7156077,24.0510581 46.6097464,25.1550549 45.2467081,25.1550549 C43.8828469,25.1550549 42.7778086,24.0510581 42.7778086,22.6884821 L42.7778086,14.4665728 C42.7778086,13.1039969 43.9375742,12 45.3014354,12 L53.5311005,12 C54.8949617,12 56,13.1039969 56,14.4665728 C56,15.8291487 54.8949617,16.9331456 53.5311005,16.9331456 L51.0846268,16.9331456 Z" id="Fill-1" fill="#4A4A4A" mask="url(#mask-2)"></path>
                </g>
            </g>
        </g>
    </g>
</svg>